{"asset":{"version":"2.0","generator":"babylon.js glTF exporter for maya 2018 v1.2.21","copyright":"2017 (c) BabylonJS"},"scene":0,"scenes":[{"nodes":[0,5],"extensions":{}}],"nodes":[{"children":[1,3],"translation":[0.151929274,0.485879958,0.501392],"rotation":[0.0,0.0,0.8057278,0.592286],"scale":[1.0,1.0,1.0],"name":"group3"},{"children":[2],"translation":[0.0,0.0,0.0],"rotation":[0.0,0.0,0.0,1.0],"scale":[1.0,1.0,1.0],"name":"group1"},{"mesh":0,"translation":[0.0,0.0,0.0],"rotation":[0.0,0.0,0.0,1.0],"scale":[1.0,1.0,1.0],"name":"pPlane1"},{"children":[4],"translation":[-0.150575787,-0.4841548,-0.358823419],"rotation":[0.29507786,-0.091771476,6.868569E-08,0.951055765],"scale":[1.0,1.0,1.0],"name":"group4"},{"mesh":1,"translation":[-0.0384487659,0.483067781,-0.499916553],"rotation":[-0.2485398,-0.183636621,-0.7657463,0.5640374],"scale":[0.3011587,0.3011587,0.3011587],"name":"pCylinder1"},{"translation":[0.0,0.0,0.0],"rotation":[0.0,0.0,0.0,1.0],"scale":[1.0,1.0,1.0],"name":"Default light"}],"meshes":[{"primitives":[{"attributes":{"POSITION":1,"NORMAL":2,"TANGENT":3,"TEXCOORD_0":4},"indices":0,"mode":4,"material":0}],"name":"pPlane1"},{"primitives":[{"attributes":{"POSITION":6,"NORMAL":7,"TANGENT":8,"TEXCOORD_0":9},"indices":5,"mode":4,"material":1}],"name":"pCylinder1"}],"accessors":[{"bufferView":0,"componentType":5123,"count":1440,"type":"SCALAR","name":"accessorIndices"},{"bufferView":1,"componentType":5126,"count":273,"max":[0.500485063,0.568716,-0.202207029],"min":[-0.5,1.110223E-16,-0.797793],"type":"VEC3","name":"accessorPositions"},{"bufferView":1,"byteOffset":3276,"componentType":5126,"count":273,"type":"VEC3","name":"accessorNormals"},{"bufferView":2,"componentType":5126,"count":273,"type":"VEC4","name":"accessorTangents"},{"bufferView":3,"componentType":5126,"count":273,"type":"VEC2","name":"accessorUVs"},{"bufferView":0,"byteOffset":2880,"componentType":5123,"count":60,"type":"SCALAR","name":"accessorIndices"},{"bufferView":1,"byteOffset":6552,"componentType":5126,"count":21,"max":[1.0,-1.0,1.00000012],"min":[-1.00000024,-1.0,-1.00000048],"type":"VEC3","name":"accessorPositions"},{"bufferView":1,"byteOffset":6804,"componentType":5126,"count":21,"type":"VEC3","name":"accessorNormals"},{"bufferView":2,"byteOffset":4368,"componentType":5126,"count":21,"type":"VEC4","name":"accessorTangents"},{"bufferView":3,"byteOffset":2184,"componentType":5126,"count":21,"type":"VEC2","name":"accessorUVs"},{"bufferView":4,"componentType":5126,"count":48,"max":[1.95833337],"min":[0.0],"type":"SCALAR","name":"accessorAnimationInput"},{"bufferView":5,"componentType":5126,"count":48,"type":"VEC4","name":"accessorAnimationRotations"},{"bufferView":4,"byteOffset":192,"componentType":5126,"count":48,"max":[1.95833337],"min":[0.0],"type":"SCALAR","name":"accessorAnimationInput"},{"bufferView":6,"componentType":5126,"count":48,"type":"VEC3","name":"accessorAnimationPositions"},{"bufferView":4,"byteOffset":384,"componentType":5126,"count":48,"max":[1.95833337],"min":[0.0],"type":"SCALAR","name":"accessorAnimationInput"},{"bufferView":5,"byteOffset":768,"componentType":5126,"count":48,"type":"VEC4","name":"accessorAnimationRotations"},{"bufferView":4,"byteOffset":576,"componentType":5126,"count":48,"max":[1.95833337],"min":[0.0],"type":"SCALAR","name":"accessorAnimationInput"},{"bufferView":6,"byteOffset":576,"componentType":5126,"count":48,"type":"VEC3","name":"accessorAnimationPositions"}],"bufferViews":[{"buffer":0,"byteLength":3000,"name":"bufferViewScalar"},{"buffer":0,"byteOffset":3000,"byteLength":7056,"byteStride":12,"name":"bufferViewFloatVec3"},{"buffer":0,"byteOffset":10056,"byteLength":4704,"byteStride":16,"name":"bufferViewFloatVec4"},{"buffer":0,"byteOffset":14760,"byteLength":2352,"byteStride":8,"name":"bufferViewFloatVec2"},{"buffer":0,"byteOffset":17112,"byteLength":768,"name":"bufferViewAnimationFloatScalar"},{"buffer":0,"byteOffset":17880,"byteLength":1536,"name":"bufferViewAnimationFloatVec4"},{"buffer":0,"byteOffset":19416,"byteLength":1152,"name":"bufferViewAnimationFloatVec3"}],"buffers":[{"uri":"27-2.bin","byteLength":20568}],"materials":[{"pbrMetallicRoughness":{"baseColorFactor":[1.0,0.486111164,0.277777821,1.0],"metallicFactor":0.0,"roughnessFactor":0.9},"emissiveFactor":[0.0,0.0,0.0],"alphaMode":"OPAQUE","name":"lambert2"},{"pbrMetallicRoughness":{"baseColorFactor":[1.0,0.833333433,0.416666716,1.0],"metallicFactor":0.0,"roughnessFactor":0.9},"emissiveFactor":[0.0,0.0,0.0],"alphaMode":"OPAQUE","name":"lambert3"}],"animations":[{"channels":[{"sampler":0,"target":{"node":3,"path":"rotation"}},{"sampler":1,"target":{"node":3,"path":"translation"}},{"sampler":2,"target":{"node":4,"path":"rotation"}},{"sampler":3,"target":{"node":4,"path":"translation"}}],"samplers":[{"input":10,"interpolation":"LINEAR","output":11},{"input":12,"interpolation":"LINEAR","output":13},{"input":14,"interpolation":"LINEAR","output":15},{"input":16,"interpolation":"LINEAR","output":17}],"name":"All Animations"}]}